<?xml version="1.0" standalone="no"?>
<!DOCTYPE svg PUBLIC "-//W3C//DTD SVG 20010904//EN"
 "http://www.w3.org/TR/2001/REC-SVG-20010904/DTD/svg10.dtd">
<svg version="1.0" xmlns="http://www.w3.org/2000/svg"
 width="250.000000pt" height="250.000000pt" viewBox="0 0 250.000000 250.000000"
 preserveAspectRatio="xMidYMid meet">

<g transform="translate(0.000000,250.000000) scale(0.100000,-0.100000)"
fill="#000000" stroke="none">
<path d="M0 1250 l0 -1250 1250 0 1250 0 0 1250 0 1250 -1250 0 -1250 0 0
-1250z m680 795 c0 -88 1 -95 20 -95 11 0 20 -7 20 -15 0 -12 -13 -15 -60 -15
-47 0 -60 3 -60 15 0 8 9 15 20 15 18 0 20 7 20 65 0 58 -2 65 -20 65 -11 0
-20 7 -20 15 0 8 6 15 14 15 7 0 19 7 26 15 7 8 19 15 26 15 11 0 14 -21 14
-95z m190 0 c0 -88 1 -95 20 -95 11 0 20 -7 20 -15 0 -12 -13 -15 -60 -15 -47
0 -60 3 -60 15 0 8 9 15 20 15 18 0 20 7 20 65 0 58 -2 65 -20 65 -11 0 -20 7
-20 15 0 8 6 15 14 15 7 0 19 7 26 15 7 8 19 15 26 15 11 0 14 -21 14 -95z
m206 87 c22 -15 34 -52 34 -109 0 -72 -22 -103 -75 -103 -50 0 -75 37 -75 110
0 72 25 110 73 110 18 0 37 -4 43 -8z m190 0 c22 -15 34 -52 34 -109 0 -72
-22 -103 -75 -103 -50 0 -75 37 -75 110 0 72 25 110 73 110 18 0 37 -4 43 -8z
m174 -87 c0 -88 1 -95 20 -95 11 0 20 -7 20 -15 0 -12 -13 -15 -60 -15 -47 0
-60 3 -60 15 0 8 9 15 20 15 18 0 20 7 20 65 0 58 -2 65 -20 65 -11 0 -20 7
-20 15 0 8 6 15 14 15 7 0 19 7 26 15 7 8 19 15 26 15 11 0 14 -21 14 -95z
m206 87 c22 -15 34 -52 34 -109 0 -72 -22 -103 -75 -103 -50 0 -75 37 -75 110
0 72 25 110 73 110 18 0 37 -4 43 -8z m190 0 c22 -15 34 -52 34 -109 0 -72
-22 -103 -75 -103 -50 0 -75 37 -75 110 0 72 25 110 73 110 18 0 37 -4 43 -8z
m-1156 -447 c0 -88 1 -95 20 -95 11 0 20 -7 20 -15 0 -12 -13 -15 -60 -15 -47
0 -60 3 -60 15 0 8 9 15 20 15 18 0 20 7 20 65 0 58 -2 65 -20 65 -11 0 -20 7
-20 15 0 8 6 15 14 15 7 0 19 7 26 15 7 8 19 15 26 15 11 0 14 -21 14 -95z
m190 0 c0 -88 1 -95 20 -95 11 0 20 -7 20 -15 0 -12 -13 -15 -60 -15 -47 0
-60 3 -60 15 0 8 9 15 20 15 18 0 20 7 20 65 0 58 -2 65 -20 65 -11 0 -20 7
-20 15 0 8 6 15 14 15 7 0 19 7 26 15 7 8 19 15 26 15 11 0 14 -21 14 -95z
m190 0 c0 -88 1 -95 20 -95 11 0 20 -7 20 -15 0 -12 -13 -15 -60 -15 -47 0
-60 3 -60 15 0 8 9 15 20 15 18 0 20 7 20 65 0 58 -2 65 -20 65 -11 0 -20 7
-20 15 0 8 6 15 14 15 7 0 19 7 26 15 7 8 19 15 26 15 11 0 14 -21 14 -95z
m206 87 c22 -15 34 -52 34 -109 0 -72 -22 -103 -75 -103 -50 0 -75 37 -75 110
0 72 25 110 73 110 18 0 37 -4 43 -8z m190 0 c22 -15 34 -52 34 -109 0 -72
-22 -103 -75 -103 -50 0 -75 37 -75 110 0 72 25 110 73 110 18 0 37 -4 43 -8z
m174 -87 c0 -88 1 -95 20 -95 11 0 20 -7 20 -15 0 -12 -13 -15 -60 -15 -47 0
-60 3 -60 15 0 8 9 15 20 15 18 0 20 7 20 65 0 58 -2 65 -20 65 -11 0 -20 7
-20 15 0 8 6 15 14 15 7 0 19 7 26 15 7 8 19 15 26 15 11 0 14 -21 14 -95z
m206 87 c22 -15 34 -52 34 -109 0 -72 -22 -103 -75 -103 -50 0 -75 37 -75 110
0 72 25 110 73 110 18 0 37 -4 43 -8z m-1156 -447 c0 -88 1 -95 20 -95 11 0
20 -7 20 -15 0 -12 -13 -15 -60 -15 -47 0 -60 3 -60 15 0 8 9 15 20 15 18 0
20 7 20 65 0 58 -2 65 -20 65 -11 0 -20 7 -20 15 0 8 6 15 14 15 7 0 19 7 26
15 7 8 19 15 26 15 11 0 14 -21 14 -95z m190 0 c0 -88 1 -95 20 -95 11 0 20
-7 20 -15 0 -12 -13 -15 -60 -15 -47 0 -60 3 -60 15 0 8 9 15 20 15 18 0 20 7
20 65 0 58 -2 65 -20 65 -11 0 -20 7 -20 15 0 8 6 15 14 15 7 0 19 7 26 15 7
8 19 15 26 15 11 0 14 -21 14 -95z m206 87 c22 -15 34 -52 34 -109 0 -72 -22
-103 -75 -103 -50 0 -75 37 -75 110 0 72 25 110 73 110 18 0 37 -4 43 -8z
m190 0 c22 -15 34 -52 34 -109 0 -72 -22 -103 -75 -103 -50 0 -75 37 -75 110
0 72 25 110 73 110 18 0 37 -4 43 -8z m174 -87 c0 -88 1 -95 20 -95 11 0 20
-7 20 -15 0 -12 -13 -15 -60 -15 -47 0 -60 3 -60 15 0 8 9 15 20 15 18 0 20 7
20 65 0 58 -2 65 -20 65 -11 0 -20 7 -20 15 0 8 6 15 14 15 7 0 19 7 26 15 7
8 19 15 26 15 11 0 14 -21 14 -95z m206 87 c22 -15 34 -52 34 -109 0 -72 -22
-103 -75 -103 -50 0 -75 37 -75 110 0 72 25 110 73 110 18 0 37 -4 43 -8z
m174 -87 c0 -88 1 -95 20 -95 11 0 20 -7 20 -15 0 -12 -13 -15 -60 -15 -47 0
-60 3 -60 15 0 8 9 15 20 15 18 0 20 7 20 65 0 58 -2 65 -20 65 -11 0 -20 7
-20 15 0 8 6 15 14 15 7 0 19 7 26 15 7 8 19 15 26 15 11 0 14 -21 14 -95z
m-1140 -360 c0 -88 1 -95 20 -95 11 0 20 -7 20 -15 0 -12 -13 -15 -60 -15 -47
0 -60 3 -60 15 0 8 9 15 20 15 18 0 20 7 20 65 0 58 -2 65 -20 65 -11 0 -20 7
-20 15 0 8 6 15 14 15 7 0 19 7 26 15 7 8 19 15 26 15 11 0 14 -21 14 -95z
m190 0 c0 -88 1 -95 20 -95 11 0 20 -7 20 -15 0 -12 -13 -15 -60 -15 -47 0
-60 3 -60 15 0 8 9 15 20 15 18 0 20 7 20 65 0 58 -2 65 -20 65 -11 0 -20 7
-20 15 0 8 6 15 14 15 7 0 19 7 26 15 7 8 19 15 26 15 11 0 14 -21 14 -95z
m206 87 c22 -15 34 -52 34 -109 0 -72 -22 -103 -75 -103 -50 0 -75 37 -75 110
0 72 25 110 73 110 18 0 37 -4 43 -8z m190 0 c22 -15 34 -52 34 -109 0 -72
-22 -103 -75 -103 -50 0 -75 37 -75 110 0 72 25 110 73 110 18 0 37 -4 43 -8z
m190 0 c22 -15 34 -52 34 -109 0 -72 -22 -103 -75 -103 -50 0 -75 37 -75 110
0 72 25 110 73 110 18 0 37 -4 43 -8z m190 0 c22 -15 34 -52 34 -109 0 -72
-22 -103 -75 -103 -50 0 -75 37 -75 110 0 72 25 110 73 110 18 0 37 -4 43 -8z
m174 -87 c0 -88 1 -95 20 -95 11 0 20 -7 20 -15 0 -12 -13 -15 -60 -15 -47 0
-60 3 -60 15 0 8 9 15 20 15 18 0 20 7 20 65 0 58 -2 65 -20 65 -11 0 -20 7
-20 15 0 8 6 15 14 15 7 0 19 7 26 15 7 8 19 15 26 15 11 0 14 -21 14 -95z
m-1140 -360 c0 -88 1 -95 20 -95 11 0 20 -7 20 -15 0 -12 -13 -15 -60 -15 -47
0 -60 3 -60 15 0 8 9 15 20 15 18 0 20 7 20 65 0 58 -2 65 -20 65 -11 0 -20 7
-20 15 0 8 6 15 14 15 7 0 19 7 26 15 7 8 19 15 26 15 11 0 14 -21 14 -95z
m190 0 c0 -88 1 -95 20 -95 11 0 20 -7 20 -15 0 -12 -13 -15 -60 -15 -47 0
-60 3 -60 15 0 8 9 15 20 15 18 0 20 7 20 65 0 58 -2 65 -20 65 -11 0 -20 7
-20 15 0 8 6 15 14 15 7 0 19 7 26 15 7 8 19 15 26 15 11 0 14 -21 14 -95z
m206 87 c22 -15 34 -52 34 -109 0 -72 -22 -103 -75 -103 -50 0 -75 37 -75 110
0 72 25 110 73 110 18 0 37 -4 43 -8z m174 -87 c0 -88 1 -95 20 -95 11 0 20
-7 20 -15 0 -12 -13 -15 -60 -15 -47 0 -60 3 -60 15 0 8 9 15 20 15 18 0 20 7
20 65 0 58 -2 65 -20 65 -11 0 -20 7 -20 15 0 8 6 15 14 15 7 0 19 7 26 15 7
8 19 15 26 15 11 0 14 -21 14 -95z m190 0 c0 -88 1 -95 20 -95 11 0 20 -7 20
-15 0 -12 -13 -15 -60 -15 -47 0 -60 3 -60 15 0 8 9 15 20 15 18 0 20 7 20 65
0 58 -2 65 -20 65 -11 0 -20 7 -20 15 0 8 6 15 14 15 7 0 19 7 26 15 7 8 19
15 26 15 11 0 14 -21 14 -95z m206 87 c22 -15 34 -52 34 -109 0 -72 -22 -103
-75 -103 -50 0 -75 37 -75 110 0 72 25 110 73 110 18 0 37 -4 43 -8z m174 -87
c0 -88 1 -95 20 -95 11 0 20 -7 20 -15 0 -12 -13 -15 -60 -15 -47 0 -60 3 -60
15 0 8 9 15 20 15 18 0 20 7 20 65 0 58 -2 65 -20 65 -11 0 -20 7 -20 15 0 8
6 15 14 15 7 0 19 7 26 15 7 8 19 15 26 15 11 0 14 -21 14 -95z"/>
<path d="M1009 2093 c-20 -23 -18 -108 2 -129 26 -25 57 -10 65 32 15 83 -27
146 -67 97z"/>
<path d="M1199 2093 c-20 -23 -18 -108 2 -129 26 -25 57 -10 65 32 15 83 -27
146 -67 97z"/>
<path d="M1579 2093 c-20 -23 -18 -108 2 -129 26 -25 57 -10 65 32 15 83 -27
146 -67 97z"/>
<path d="M1769 2093 c-20 -23 -18 -108 2 -129 26 -25 57 -10 65 32 15 83 -27
146 -67 97z"/>
<path d="M1199 1733 c-20 -23 -18 -108 2 -129 26 -25 57 -10 65 32 15 83 -27
146 -67 97z"/>
<path d="M1389 1733 c-20 -23 -18 -108 2 -129 26 -25 57 -10 65 32 15 83 -27
146 -67 97z"/>
<path d="M1769 1733 c-20 -23 -18 -108 2 -129 26 -25 57 -10 65 32 15 83 -27
146 -67 97z"/>
<path d="M1009 1373 c-20 -23 -18 -108 2 -129 26 -25 57 -10 65 32 15 83 -27
146 -67 97z"/>
<path d="M1199 1373 c-20 -23 -18 -108 2 -129 26 -25 57 -10 65 32 15 83 -27
146 -67 97z"/>
<path d="M1579 1373 c-20 -23 -18 -108 2 -129 26 -25 57 -10 65 32 15 83 -27
146 -67 97z"/>
<path d="M1009 1013 c-20 -23 -18 -108 2 -129 26 -25 57 -10 65 32 15 83 -27
146 -67 97z"/>
<path d="M1199 1013 c-20 -23 -18 -108 2 -129 26 -25 57 -10 65 32 15 83 -27
146 -67 97z"/>
<path d="M1389 1013 c-20 -23 -18 -108 2 -129 26 -25 57 -10 65 32 15 83 -27
146 -67 97z"/>
<path d="M1579 1013 c-20 -23 -18 -108 2 -129 26 -25 57 -10 65 32 15 83 -27
146 -67 97z"/>
<path d="M1009 653 c-20 -23 -18 -108 2 -129 26 -25 57 -10 65 32 15 83 -27
146 -67 97z"/>
<path d="M1579 653 c-20 -23 -18 -108 2 -129 26 -25 57 -10 65 32 15 83 -27
146 -67 97z"/>
</g>
</svg>
